<?xml version="1.0" standalone="no"?>
<!DOCTYPE svg PUBLIC "-//W3C//DTD SVG 20010904//EN"
 "http://www.w3.org/TR/2001/REC-SVG-20010904/DTD/svg10.dtd">
<svg version="1.0" xmlns="http://www.w3.org/2000/svg"
 width="1000.000000pt" height="1000.000000pt" viewBox="0 0 1000.000000 1000.000000"
 preserveAspectRatio="xMidYMid meet">

<g transform="translate(0.000000,1000.000000) scale(0.100000,-0.100000)"
fill="#000000" stroke="none">
<path d="M0 7500 l0 -2500 5000 0 5000 0 0 2500 0 2500 -5000 0 -5000 0 0
-2500z m5420 1313 c44 -31 78 -58 77 -60 -2 -1 -281 -94 -621 -207 l-618 -204
-77 55 c-42 30 -77 58 -79 62 -3 8 1189 408 1221 410 10 1 54 -25 97 -56z
m201 -138 c41 -31 75 -59 77 -63 2 -7 -1202 -412 -1226 -412 -14 0 -162 109
-162 119 0 7 1196 409 1221 410 8 1 49 -24 90 -54z m210 -150 c41 -31 75 -59
77 -63 1 -4 -137 -54 -308 -110 l-310 -104 0 -869 c0 -478 1 -869 3 -869 1 0
103 34 226 75 l223 74 79 -57 c44 -31 79 -59 79 -63 0 -6 -1210 -409 -1229
-409 -11 0 -134 83 -165 110 -4 5 132 54 303 109 l311 102 0 870 c0 751 -2
870 -14 866 -62 -24 -428 -138 -434 -135 -15 6 -161 113 -161 118 0 6 1207
408 1230 409 8 1 49 -24 90 -54z m-757 -470 c3 6 5 -349 5 -787 l1 -796 -303
-101 c-166 -56 -307 -101 -313 -101 -11 0 -157 107 -162 118 -1 4 137 54 308
110 l310 104 0 726 0 727 75 -5 c45 -3 77 -1 79 5z m-197 -925 l-2 -505 -300
-102 c-165 -56 -307 -102 -316 -102 -15 -1 -161 102 -167 117 -1 4 137 54 308
110 l310 104 0 611 0 612 75 -3 c57 -3 75 0 77 10 8 71 17 -451 15 -852z m551
-252 c34 -24 61 -46 61 -49 1 -7 -128 -43 -133 -38 -2 2 -6 34 -8 72 -4 78 -7
77 80 15z m187 -134 c41 -31 75 -59 75 -63 0 -5 -214 -79 -308 -106 -23 -7
-23 -6 -20 81 l3 89 70 26 c39 15 78 27 88 28 10 1 51 -24 92 -55z"/>
<path d="M4708 3667 c-335 -110 -608 -203 -607 -206 0 -11 147 -111 162 -111
31 0 1227 401 1222 410 -9 15 -148 110 -159 109 -6 0 -284 -91 -618 -202z"/>
<path d="M4918 3527 c-335 -111 -608 -204 -608 -208 0 -5 116 -93 146 -112 13
-7 1244 391 1244 403 -1 8 -157 120 -166 119 -5 -1 -282 -92 -616 -202z"/>
<path d="M5128 3377 c-335 -110 -608 -204 -608 -208 0 -3 35 -33 77 -64 l77
-58 216 71 c118 40 221 72 228 72 9 0 12 -186 10 -867 l-3 -868 -308 -104
c-232 -78 -305 -106 -298 -115 6 -7 42 -34 80 -60 l69 -48 616 203 c339 111
616 205 615 208 0 11 -147 111 -161 111 -7 0 -110 -32 -228 -70 -118 -39 -216
-70 -217 -70 -2 0 -2 393 -1 872 l3 873 308 100 c169 55 307 102 307 105 -1 8
-157 120 -166 119 -5 0 -282 -91 -616 -202z"/>
<path d="M4998 3111 l-77 -26 -3 -744 -3 -744 -307 -100 c-170 -56 -308 -103
-308 -106 1 -3 36 -32 80 -64 l80 -59 310 104 310 103 0 832 c0 458 -1 832 -2
831 -2 0 -38 -13 -80 -27z"/>
<path d="M4788 3041 l-78 -25 -2 -635 -3 -635 -307 -100 c-169 -56 -308 -103
-307 -106 0 -3 35 -31 79 -63 l79 -58 311 103 311 103 -1 719 c0 396 -1 720
-3 721 -1 1 -37 -9 -79 -24z"/>
<path d="M226 2291 c-3 -4 -17 -6 -30 -4 -20 4 -26 0 -31 -20 -7 -26 0 -47 14
-47 5 0 6 11 3 25 -3 18 0 25 12 25 9 0 16 -7 16 -15 0 -22 17 -18 23 6 8 29
32 18 32 -14 -1 -30 12 -36 22 -11 14 37 -41 87 -61 55z"/>
<path d="M160 2165 c0 -25 5 -45 10 -45 6 0 10 14 10 31 0 27 3 30 23 23 12
-3 34 -13 49 -20 31 -16 38 -17 38 -5 0 7 -108 61 -124 61 -3 0 -6 -20 -6 -45z"/>
<path d="M160 2092 c0 -5 7 -17 15 -28 13 -17 14 -17 15 -1 0 14 9 17 50 17
28 0 50 5 50 10 0 6 -28 10 -65 10 -36 0 -65 -4 -65 -8z"/>
<path d="M160 2011 c0 -22 5 -43 10 -46 6 -4 10 7 10 25 0 28 2 31 23 24 12
-3 34 -13 49 -20 31 -16 38 -17 38 -5 0 7 -108 61 -124 61 -3 0 -6 -18 -6 -39z"/>
<path d="M270 1925 l0 -25 -20 20 c-11 11 -33 20 -50 20 -23 0 -31 -5 -36 -24
-6 -25 1 -46 15 -46 4 0 7 10 7 23 -1 32 34 34 64 2 32 -34 40 -32 40 15 0 22
-4 40 -10 40 -5 0 -10 -11 -10 -25z"/>
<path d="M5330 1860 c0 -44 3 -80 7 -80 18 0 143 45 143 51 0 7 -135 109 -145
109 -3 0 -5 -36 -5 -80z"/>
<path d="M177 1832 c-22 -24 -21 -35 1 -55 25 -22 75 -21 95 1 23 25 21 38 -5
56 -30 21 -71 20 -91 -2z m77 -8 c24 -9 19 -33 -8 -40 -31 -7 -66 3 -66 21 0
21 41 32 74 19z"/>
<path d="M5425 1767 l-90 -32 -3 -87 c-1 -49 1 -88 5 -88 20 0 353 116 351
122 -5 12 -151 118 -162 117 -6 0 -51 -15 -101 -32z"/>
<path d="M176 1724 c-19 -18 -20 -28 -6 -55 19 -35 70 -17 70 26 1 18 3 17 18
-7 17 -29 32 -36 32 -17 0 18 -57 69 -79 69 -11 0 -27 -7 -35 -16z m42 -26
c-2 -12 -9 -23 -15 -26 -19 -6 -29 28 -12 39 23 14 31 10 27 -13z"/>
<path d="M176 1614 c-19 -18 -20 -28 -6 -55 19 -35 70 -17 70 26 1 18 3 17 18
-7 17 -29 32 -36 32 -17 0 18 -57 69 -79 69 -11 0 -27 -7 -35 -16z m42 -26
c-2 -12 -9 -23 -15 -26 -19 -6 -29 28 -12 39 23 14 31 10 27 -13z"/>
<path d="M160 1502 c0 -5 7 -17 15 -28 13 -17 14 -17 15 -1 0 14 9 17 50 17
28 0 50 5 50 10 0 6 -28 10 -65 10 -36 0 -65 -4 -65 -8z"/>
<path d="M196 1451 c-4 -6 -12 -9 -17 -6 -5 4 -9 2 -9 -4 0 -5 6 -12 13 -15 9
-5 9 -7 0 -12 -10 -4 -9 -9 2 -20 8 -9 20 -12 26 -8 6 3 14 1 18 -5 5 -8 15
-9 31 -3 19 7 21 10 7 15 -23 9 -22 28 1 20 12 -4 11 0 -7 17 -17 17 -25 20
-31 10 -6 -9 -10 -8 -17 5 -7 12 -12 14 -17 6z m39 -41 c-3 -5 -10 -10 -16
-10 -5 0 -9 5 -9 10 0 6 7 10 16 10 8 0 12 -4 9 -10z"/>
<path d="M140 1280 c0 -6 38 -10 95 -10 57 0 95 4 95 10 0 6 -38 10 -95 10
-57 0 -95 -4 -95 -10z"/>
<path d="M261 1189 c-22 -18 -25 -19 -42 -3 -11 10 -22 14 -27 10 -4 -4 4 -16
17 -27 l23 -19 -46 0 c-34 0 -46 -4 -46 -15 0 -12 15 -15 75 -15 60 0 75 3 75
15 0 9 -9 15 -22 15 l-23 0 24 19 c13 10 22 23 20 29 -2 6 -14 3 -28 -9z"/>
<path d="M190 1081 c0 -27 27 -51 55 -51 24 0 45 25 45 54 0 25 -18 19 -22 -6
-2 -17 -10 -23 -28 -23 -18 0 -26 6 -28 23 -4 27 -22 30 -22 3z"/>
<path d="M206 994 c-19 -18 -20 -28 -6 -55 21 -39 90 -16 90 30 0 16 -30 41
-50 41 -10 0 -26 -7 -34 -16z m59 -29 c0 -22 -31 -33 -47 -17 -17 17 -1 44 24
40 15 -2 23 -10 23 -23z"/>
<path d="M190 900 c0 -5 -7 -10 -15 -10 -8 0 -15 -4 -15 -10 0 -5 6 -10 14
-10 8 0 17 -6 20 -12 5 -10 7 -10 12 0 3 6 21 12 40 12 34 0 56 22 39 38 -4 4
-10 1 -12 -5 -5 -15 -63 -18 -63 -3 0 6 -4 10 -10 10 -5 0 -10 -4 -10 -10z"/>
<path d="M212 810 c-19 -34 -35 -34 -40 -2 -5 30 -22 28 -22 -2 0 -50 54 -61
77 -16 17 34 38 32 38 -3 -1 -32 18 -31 23 2 8 53 -49 69 -76 21z"/>
<path d="M200 675 c-22 -26 3 -65 40 -65 35 0 58 36 45 67 -7 16 -9 15 -13 -7
-6 -40 -22 -48 -22 -12 0 25 -4 32 -19 32 -10 0 -24 -7 -31 -15z m30 -26 c0
-11 -4 -17 -10 -14 -5 3 -10 13 -10 21 0 8 5 14 10 14 6 0 10 -9 10 -21z"/>
<path d="M197 561 c-8 -22 -18 -31 -34 -31 -14 0 -23 -6 -23 -15 0 -23 138
-22 147 2 10 26 -19 68 -50 71 -24 3 -30 -2 -40 -27z m57 3 c28 -11 18 -34
-14 -34 -18 0 -30 5 -30 13 0 25 15 32 44 21z"/>
<path d="M206 464 c-19 -18 -20 -28 -6 -55 21 -39 90 -16 90 30 0 16 -30 41
-50 41 -10 0 -26 -7 -34 -16z m59 -29 c0 -22 -31 -33 -47 -17 -17 17 -1 44 24
40 15 -2 23 -10 23 -23z"/>
<path d="M140 350 c0 -5 11 -10 25 -10 15 0 25 -6 25 -14 0 -45 73 -62 92 -22
20 45 6 56 -72 56 -40 0 -70 -4 -70 -10z m128 -27 c-2 -12 -12 -18 -28 -18
-16 0 -26 6 -28 18 -3 13 3 17 28 17 25 0 31 -4 28 -17z"/>
<path d="M220 246 c-36 -13 -66 -29 -68 -37 -1 -9 20 -21 68 -35 38 -12 70
-17 70 -12 0 6 -9 12 -20 15 -14 4 -20 14 -20 34 0 22 5 29 20 29 11 0 20 7
20 15 0 8 -1 15 -2 14 -2 0 -32 -11 -68 -23z m8 -51 c-7 -7 -48 7 -48 15 0 15
45 16 48 2 2 -8 2 -15 0 -17z"/>
</g>
</svg>
